<svg xmlns="http://www.w3.org/2000/svg" viewBox="0 0 24 24" fill="none" stroke="#9b87f5" stroke-width="2" stroke-linecap="round" stroke-linejoin="round"><path d="m9.5 7.5-2.153 2.153a1 1 0 0 0 0 1.414L8.5 12.25c.212.213.23.55.04.79L5.6 17.6a3 3 0 0 0 4.242 4.242l4.56-2.94c.24-.19.577-.172.79.04l1.153 1.153a1 1 0 0 0 1.414 0L19.9 17.9a1 1 0 0 0 0-1.414l-2.153-2.153a1 1 0 0 0-1.414 0L15.2 15.45c-.213.212-.55.23-.79.04L9.85 10.9a.996.996 0 0 1 .04-.79l1.153-1.153a1 1 0 0 0 0-1.414L8.9 5.35a1 1 0 0 0-1.414 0L5.35 7.5"/><path d="M16.243 3.515a3 3 0 0 0-4.242 4.242"/></svg>